<svg width="20" height="20" viewBox="0 0 20 20" fill="none" xmlns="http://www.w3.org/2000/svg">
<path d="M3.42129 13.802L2.7988 13.3837L2.7988 13.3837L3.42129 13.802ZM4.39044 10.6959L3.64044 10.6877V10.6959H4.39044ZM4.41078 8.81783L5.16078 8.82596V8.81783H4.41078ZM16.5838 13.8171L17.2143 13.4108L17.2143 13.4108L16.5838 13.8171ZM15.6512 10.6959L14.9012 10.6873V10.6959H15.6512ZM15.6715 8.91089L16.4215 8.91944V8.91089H15.6715ZM7.77776 16.75C7.36354 16.75 7.02776 17.0858 7.02776 17.5C7.02776 17.9142 7.36354 18.25 7.77776 18.25V17.5V16.75ZM12.2222 18.25C12.6364 18.25 12.9722 17.9142 12.9722 17.5C12.9722 17.0858 12.6364 16.75 12.2222 16.75V17.5V18.25ZM3.42129 13.802L4.04378 14.2204C4.59729 13.3967 5.14044 12.1771 5.14044 10.6959H4.39044H3.64044C3.64044 11.8067 3.2316 12.7397 2.7988 13.3837L3.42129 13.802ZM4.39044 10.6959L5.1404 10.704L5.16074 8.82595L4.41078 8.81783L3.66083 8.80971L3.64048 10.6877L4.39044 10.6959ZM16.5838 13.8171L17.2143 13.4108C16.7992 12.7667 16.4012 11.8237 16.4012 10.6959H15.6512H14.9012C14.9012 12.178 15.4223 13.3993 15.9534 14.2234L16.5838 13.8171ZM15.6512 10.6959L16.4011 10.7044L16.4215 8.91944L15.6715 8.91089L14.9216 8.90235L14.9012 10.6873L15.6512 10.6959ZM15.6715 8.91089H16.4215C16.4215 5.04506 13.6302 1.75 9.99998 1.75V2.5V3.25C12.6343 3.25 14.9215 5.69545 14.9215 8.91089H15.6715ZM16.2444 14.6875V15.4375C16.8636 15.4375 17.2017 14.957 17.3228 14.6355C17.4503 14.2969 17.477 13.8185 17.2143 13.4108L16.5838 13.8171L15.9534 14.2234C15.9211 14.1732 15.9173 14.1346 15.9168 14.1246C15.9163 14.1147 15.9175 14.1109 15.919 14.1069C15.9197 14.1049 15.9309 14.074 15.9748 14.0351C16.0245 13.991 16.1186 13.9375 16.2444 13.9375V14.6875ZM4.41078 8.81783H5.16078C5.16078 5.65379 7.4111 3.25 9.99998 3.25V2.5V1.75C6.4152 1.75 3.66078 5.0034 3.66078 8.81783H4.41078ZM3.75634 14.6875V13.9375C3.88491 13.9375 3.97995 13.993 4.02888 14.0373C4.07187 14.0762 4.08185 14.106 4.08185 14.106C4.08265 14.1082 4.08373 14.1105 4.08317 14.1197C4.08261 14.1288 4.07846 14.1688 4.04378 14.2204L3.42129 13.802L2.7988 13.3837C2.52366 13.7931 2.5484 14.2798 2.67288 14.6206C2.79059 14.9429 3.12735 15.4375 3.75634 15.4375V14.6875ZM16.2444 14.6875V13.9375H3.75634V14.6875V15.4375H16.2444V14.6875ZM7.77776 17.5V18.25H12.2222V17.5V16.75H7.77776V17.5Z" fill="black"/>
</svg>
