<svg width="20" height="20" viewBox="0 0 20 20" fill="none" xmlns="http://www.w3.org/2000/svg">
<path d="M18 13.8V14.55C18.4142 14.55 18.75 14.2142 18.75 13.8H18ZM18 9.39995H18.75C18.75 8.98574 18.4142 8.64995 18 8.64995V9.39995ZM5.99443 5.16907C5.646 5.39306 5.54513 5.85709 5.76912 6.20552C5.9931 6.55395 6.45714 6.65482 6.80557 6.43084L6.4 5.79995L5.99443 5.16907ZM12 2.19995L12.592 1.7395C12.3537 1.43309 11.921 1.35916 11.5944 1.56907L12 2.19995ZM14.208 6.26041C14.4623 6.58737 14.9335 6.64627 15.2605 6.39197C15.5874 6.13766 15.6463 5.66646 15.392 5.3395L14.8 5.79995L14.208 6.26041ZM18 13.8V13.05H15.4V13.8V14.55H18V13.8ZM15.4 9.39995V10.15H18V9.39995V8.64995H15.4V9.39995ZM18 9.39995H17.25V13.8H18H18.75V9.39995H18ZM13.2 11.6H13.95C13.95 10.7991 14.5992 10.15 15.4 10.15V9.39995V8.64995C13.7708 8.64995 12.45 9.97071 12.45 11.6H13.2ZM15.4 13.8V13.05C14.5992 13.05 13.95 12.4008 13.95 11.6H13.2H12.45C12.45 13.2292 13.7708 14.55 15.4 14.55V13.8ZM6.4 5.79995L6.80557 6.43084L12.4056 2.83083L12 2.19995L11.5944 1.56907L5.99443 5.16907L6.4 5.79995ZM12 2.19995L11.408 2.66041L14.208 6.26041L14.8 5.79995L15.392 5.3395L12.592 1.7395L12 2.19995ZM2.8 5.79995V6.54995H16.4V5.79995V5.04995H2.8V5.79995ZM16.4 17.8V17.05H2.8V17.8V18.55H16.4V17.8ZM2 17H2.75V6.59995H2H1.25V17H2ZM2.8 17.8V17.05C2.77239 17.05 2.75 17.0276 2.75 17H2H1.25C1.25 17.856 1.94396 18.55 2.8 18.55V17.8ZM17.2 17H16.45C16.45 17.0276 16.4276 17.05 16.4 17.05V17.8V18.55C17.256 18.55 17.95 17.856 17.95 17H17.2ZM16.4 5.79995V6.54995C16.4276 6.54995 16.45 6.57234 16.45 6.59995H17.2H17.95C17.95 5.74391 17.256 5.04995 16.4 5.04995V5.79995ZM2.8 5.79995V5.04995C1.94396 5.04995 1.25 5.74391 1.25 6.59995H2H2.75C2.75 6.57234 2.77239 6.54995 2.8 6.54995V5.79995ZM17.2 14.4H16.45V17H17.2H17.95V14.4H17.2ZM17.2 6.59995H16.45V8.69995H17.2H17.95V6.59995H17.2Z" fill="black"/>
</svg>
